<?xml version="1.0" encoding="UTF-8"?>
<!DOCTYPE svg PUBLIC "-//W3C//DTD SVG 1.0//EN" "http://www.w3.org/TR/2001/REC-SVG-20010904/DTD/svg10.dtd">
<!-- Creator: CorelDRAW 2017 -->
<svg xmlns="http://www.w3.org/2000/svg" xml:space="preserve" width="406px" height="406px" version="1.0" style="shape-rendering:geometricPrecision; text-rendering:geometricPrecision; image-rendering:optimizeQuality; fill-rule:evenodd; clip-rule:evenodd"
viewBox="0 0 268 268"
 xmlns:xlink="http://www.w3.org/1999/xlink">
 <defs>
  <style type="text/css">
   <![CDATA[
    .fil0 {fill:#FEFEFE}
   ]]>
  </style>
 </defs>
 <g id="Слой_x0020_1">
  <metadata id="CorelCorpID_0Corel-Layer"/>
  <path class="fil0" d="M134 0c-56,0 -72,0 -75,0 -11,1 -19,3 -26,7 -6,3 -11,6 -15,11 -8,9 -14,20 -16,33 -1,6 -1,8 -1,40 0,11 0,25 0,43 0,56 0,72 0,75 1,11 3,18 6,26 7,15 21,26 37,30 6,1 12,2 19,3 3,0 37,0 71,0 34,0 68,0 71,0 9,0 14,-1 20,-3 16,-4 29,-15 37,-30 4,-7 5,-15 6,-25 0,-2 0,-39 0,-76 0,-37 0,-73 0,-76 -1,-11 -3,-18 -6,-26 -3,-6 -7,-11 -11,-16 -9,-8 -20,-14 -33,-15 -6,-1 -8,-1 -40,-1l-44 0zm0 35c-27,0 -30,0 -41,1 -11,0 -18,2 -24,5 -7,3 -12,6 -18,11 -6,5 -9,11 -11,18 -2,6 -4,13 -5,24 0,11 -1,14 -1,41 0,27 0,30 1,41 0,11 2,18 5,24 3,7 6,12 11,18 5,5 11,9 18,11 6,2 13,4 24,5 11,0 14,1 41,1 27,0 30,0 41,-1 11,0 18,-2 24,-5 7,-3 12,-6 17,-11 6,-6 9,-11 11,-18 2,-6 4,-13 5,-24 0,-11 1,-14 1,-41 0,-27 0,-30 -1,-41 -1,-11 -2,-18 -5,-24 -3,-7 -6,-12 -11,-18 -5,-6 -11,-9 -18,-11 -6,-2 -13,-4 -24,-5 -11,0 -14,-1 -41,-1l0 0zm-9 18c3,0 6,0 9,0 26,0 30,0 40,1 10,0 15,2 18,3 5,2 8,4 11,7 3,3 6,7 7,11 1,3 3,9 3,18 0,10 1,14 1,40 0,26 0,30 -1,40 0,10 -2,15 -3,18 -2,5 -4,8 -7,11 -3,3 -7,6 -11,7 -3,1 -9,3 -18,3 -10,0 -14,1 -40,1 -26,0 -30,0 -40,-1 -10,0 -15,-2 -18,-3 -5,-2 -8,-4 -11,-7 -3,-3 -6,-7 -7,-11 -1,-3 -3,-9 -3,-18 0,-10 -1,-14 -1,-40 0,-26 0,-29 1,-40 0,-10 2,-15 3,-18 2,-5 4,-8 7,-11 3,-3 7,-6 11,-7 3,-1 9,-3 18,-3 9,0 13,-1 31,-1l0 0zm62 16c-7,0 -12,5 -12,12 0,7 5,12 12,12 7,0 12,-5 12,-12 0,-7 -5,-12 -12,-12l0 0zm-53 14c-28,0 -51,23 -51,51 0,28 23,51 51,51 28,0 51,-23 51,-51 0,-28 -23,-51 -51,-51l0 0zm0 18c18,0 33,15 33,33 0,18 -15,33 -33,33 -18,0 -33,-15 -33,-33 0,-18 15,-33 33,-33z"/>
 </g>
</svg>
