<?xml version="1.0" encoding="UTF-8"?>
<!DOCTYPE svg PUBLIC "-//W3C//DTD SVG 1.0//EN" "http://www.w3.org/TR/2001/REC-SVG-20010904/DTD/svg10.dtd">
<!-- Creator: CorelDRAW 2017 -->
<svg xmlns="http://www.w3.org/2000/svg" xml:space="preserve" width="1611px" height="1251px" version="1.0" style="shape-rendering:geometricPrecision; text-rendering:geometricPrecision; image-rendering:optimizeQuality; fill-rule:evenodd; clip-rule:evenodd"
viewBox="0 0 1757 1364"
 xmlns:xlink="http://www.w3.org/1999/xlink">
 <defs>
  <style type="text/css">
   <![CDATA[
    .str0 {stroke:#2B2A28;stroke-width:3}
    .str1 {stroke:#78E461;stroke-width:1}
    .fil0 {fill:#2B2A28}
    .fil1 {fill:#78E461;fill-rule:nonzero}
    .fil2 {fill:url(#id0);fill-rule:nonzero}
   ]]>
  </style>
  <linearGradient id="id0" gradientUnits="userSpaceOnUse" x1="376" y1="178" x2="1301" y2="989">
   <stop offset="0" style="stop-opacity:1; stop-color:#78E461"/>
   <stop offset="1" style="stop-opacity:1; stop-color:#FEFEFE"/>
  </linearGradient>
 </defs>
 <g id="Слой_x0020_1">
  <metadata id="CorelCorpID_0Corel-Layer"/>
  <path class="fil0 str0" d="M130 1l1496 0c71,0 129,58 129,129l0 860c0,71 -58,129 -129,129l-656 0 -91 221c-6,14 -19,23 -34,23 -15,0 -28,-9 -34,-23l-91 -221 -591 0c-71,0 -129,-58 -129,-129l0 -860c0,-71 58,-129 129,-129z"/>
  <g id="_986496848">
   <path class="fil1 str1" d="M574 218l0 -29 608 0 0 29 -608 0zm608 225l0 29 -227 0c-10,0 -19,-4 -26,-11 -7,-7 -11,-16 -11,-26l0 -120 263 0 0 29 -234 0 0 91c0,2 1,4 2,5 1,1 3,2 5,2l227 0zm-344 0l0 29 -227 0c-10,0 -19,-4 -26,-11 -7,-7 -11,-16 -11,-26l0 -120 263 0 0 29 -234 0 0 91c0,2 1,4 2,5 1,1 3,2 5,2l227 0zm-234 547l-29 0 0 -247c0,-10 4,-19 11,-26 7,-7 16,-11 26,-11l126 0 103 250c1,3 3,4 6,4 3,0 5,-1 6,-4l103 -250 346 0 0 29 -326 0 -95 232c-6,14 -19,23 -34,23 -15,0 -28,-9 -34,-23l-95 -232 -106 0c-2,0 -4,1 -5,2 -1,1 -2,3 -2,5l0 247zm-29 -399l29 -12 0 66 -29 12 0 -66zm726 -3l-29 12 0 -152 270 -111c3,-1 4,-3 4,-6 0,-3 -1,-5 -4,-6l-240 -99 0 108 -29 12 0 -142c0,-5 2,-9 7,-12 4,-3 9,-3 14,-1l261 107c14,6 23,19 23,34 0,15 -9,28 -23,34l-252 103 0 120zm-845 -514l29 -12 0 152 -270 111c-3,1 -4,3 -4,6 0,3 1,5 4,6l240 99 0 -108 29 -12 0 142c0,5 -2,9 -7,12 -4,3 -9,3 -14,1l-261 -107c-14,-6 -23,-19 -23,-34 0,-15 9,-28 23,-34l252 -103 0 -120zm0 517l29 -12 0 152 -270 111c-3,1 -4,3 -4,6 0,3 1,5 4,6l240 99 0 -108 29 -12 0 142c0,5 -2,9 -7,12 -4,3 -9,3 -14,1l-261 -107c-14,-6 -23,-19 -23,-34 0,-15 9,-28 23,-34l252 -103 0 -120zm845 369l0 29 -227 0c-10,0 -19,-4 -26,-11 -7,-7 -11,-16 -11,-26l0 -120 263 0 0 29 -234 0 0 91c0,2 1,4 2,5 1,1 3,2 5,2l227 0z"/>
   <path class="fil2" d="M1412 910l130 -53c4,-2 6,-5 6,-9 0,-4 -2,-8 -6,-9l-130 -53 0 -69c0,-25 20,-45 45,-45 23,0 42,17 45,40l69 -28 0 25 -92 38 0 -29c0,-12 -10,-22 -22,-22 -12,0 -22,10 -22,22l0 53 115 47c13,5 21,17 21,31 0,14 -8,26 -21,31l-139 57 0 -25z"/>
  </g>
 </g>
</svg>
