<?xml version="1.0" encoding="UTF-8"?>
<!DOCTYPE svg PUBLIC "-//W3C//DTD SVG 1.0//EN" "http://www.w3.org/TR/2001/REC-SVG-20010904/DTD/svg10.dtd">
<!-- Creator: CorelDRAW 2017 -->
<svg xmlns="http://www.w3.org/2000/svg" xml:space="preserve" width="530px" height="373px" version="1.0" style="shape-rendering:geometricPrecision; text-rendering:geometricPrecision; image-rendering:optimizeQuality; fill-rule:evenodd; clip-rule:evenodd"
viewBox="0 0 138 97"
 xmlns:xlink="http://www.w3.org/1999/xlink">
 <defs>
  <style type="text/css">
   <![CDATA[
    .fil0 {fill:url(#id0);fill-rule:nonzero}
   ]]>
  </style>
  <linearGradient id="id0" gradientUnits="userSpaceOnUse" x1="10" y1="31" x2="66" y2="73">
   <stop offset="0" style="stop-opacity:1; stop-color:#36A539"/>
   <stop offset="0.619608" style="stop-opacity:1; stop-color:#57C44D"/>
   <stop offset="1" style="stop-opacity:1; stop-color:#78E461"/>
  </linearGradient>
 </defs>
 <g id="Layer_x0020_1">
  <metadata id="CorelCorpID_0Corel-Layer"/>
  <path class="fil0" d="M73 8l0 23 33 14 24 -10c1,0 1,-1 1,-2 0,-1 0,-1 -1,-2l-57 -24zm-4 29l-28 11 28 11 28 -11 -28 -11zm46 11l17 7c3,1 5,4 5,8 0,4 -2,7 -5,8l-60 25c-2,1 -5,1 -7,0l-60 -25c-3,-1 -5,-4 -5,-8 0,-4 2,-7 5,-8l17 -7 -17 -7c-3,-1 -5,-4 -5,-8 0,-4 2,-7 5,-8l60 -25c2,-1 5,-1 7,0l60 25c3,1 5,4 5,8 0,4 -2,7 -5,8l-17 7zm-43 40l57 -24c1,0 1,-1 1,-2 0,-1 0,-1 -1,-2l-24 -10 -33 14 0 23zm-41 -37l-24 10c-1,0 -1,1 -1,2 0,1 0,1 1,2l57 24 0 -23 -33 -14zm0 -8l33 -14 0 -23 -57 24c-1,0 -1,1 -1,2 0,1 0,1 1,2l24 10z"/>
 </g>
</svg>
