<?xml version="1.0" encoding="UTF-8"?>
<!DOCTYPE svg PUBLIC "-//W3C//DTD SVG 1.0//EN" "http://www.w3.org/TR/2001/REC-SVG-20010904/DTD/svg10.dtd">
<!-- Creator: CorelDRAW 2017 -->
<svg xmlns="http://www.w3.org/2000/svg" xml:space="preserve" width="108.145mm" height="72.0419mm" version="1.0" style="shape-rendering:geometricPrecision; text-rendering:geometricPrecision; image-rendering:optimizeQuality; fill-rule:evenodd; clip-rule:evenodd"
viewBox="0 0 9716 6472"
 xmlns:xlink="http://www.w3.org/1999/xlink">
 <defs>
  <style type="text/css">
   <![CDATA[
    .fil1 {fill:#FEFEFE;fill-rule:nonzero}
    .fil0 {fill:#78e461;fill-rule:nonzero}
   ]]>
  </style>
 </defs>
 <g id="Layer_x0020_1">
  <metadata id="CorelCorpID_0Corel-Layer"/>
  <g id="_836119280">
   <path class="fil0" d="M2738 1092l0 -205 4239 0 0 205 -4239 0zm4239 1568l0 205 -1584 0c-67,0 -132,-27 -179,-75 -48,-48 -75,-112 -75,-179l0 -838 1837 0 0 205 -1632 0 0 633c0,14 5,26 14,34 9,9 21,14 35,14l1584 0zm-2402 0l0 205 -1584 0c-67,0 -132,-27 -179,-75 -48,-48 -75,-112 -75,-179l0 -838 1837 0 0 205 -1632 0 0 633c0,14 5,26 14,34 9,9 21,14 35,14l1584 0zm-1632 3812l-205 0 0 -1725c0,-67 27,-132 75,-179 48,-48 112,-75 179,-75l878 0 716 1743c8,20 24,30 45,30 21,0 37,-10 45,-30l716 -1743 2411 0 0 205 -2275 0 -664 1616c-39,96 -131,157 -234,157 -104,0 -195,-62 -234,-157l-664 -1616 -741 0c-14,0 -26,5 -34,14 -9,9 -14,21 -14,35l0 1725zm-205 -2781l205 -84 0 462 -205 84 0 -462zm5066 -24l-205 84 0 -1058 1882 -773c20,-8 30,-24 30,-45 0,-21 -10,-37 -30,-45l-1677 -689 0 752 -205 84 0 -989c0,-35 16,-66 45,-85 29,-20 64,-23 96,-10l1818 747c96,39 157,131 157,234 0,104 -62,195 -157,234l-1754 721 0 836zm-5892 -3583l205 -84 0 1058 -1882 773c-20,8 -30,24 -30,45 0,21 10,37 30,45l1677 689 0 -752 205 -84 0 989c0,35 -16,66 -46,85 -29,20 -64,23 -96,10l-1818 -747c-96,-39 -157,-131 -157,-234 0,-104 62,-195 157,-234l1754 -721 0 -836zm0 3607l205 -84 0 1058 -1882 773c-20,8 -30,24 -30,45 0,21 10,37 30,45l1677 689 0 -752 205 -84 0 989c0,35 -16,66 -46,85 -29,20 -64,23 -96,10l-1818 -747c-96,-39 -157,-131 -157,-234 0,-104 62,-195 157,-234l1754 -721 0 -836zm5892 2575l0 205 -1584 0c-67,0 -132,-27 -179,-75 -48,-48 -75,-112 -75,-179l0 -838 1837 0 0 205 -1632 0 0 633c0,14 5,26 14,34 9,9 21,14 35,14l1584 0z"/>
   <path class="fil1" d="M8582 5919l906 -372c27,-11 43,-35 43,-64 0,-30 -15,-53 -43,-64l-906 -372 0 -481c0,-174 143,-317 317,-317 160,0 296,121 315,279l481 -197 0 177 -643 264 0 -206c0,-84 -69,-153 -153,-153 -84,0 -153,69 -153,153l0 371 804 330c88,36 145,120 145,216 0,96 -56,179 -145,216l-968 398 0 -177z"/>
  </g>
 </g>
</svg>
