<?xml version="1.0" encoding="UTF-8"?>
<!DOCTYPE svg PUBLIC "-//W3C//DTD SVG 1.0//EN" "http://www.w3.org/TR/2001/REC-SVG-20010904/DTD/svg10.dtd">
<!-- Creator: CorelDRAW 2017 -->
<svg xmlns="http://www.w3.org/2000/svg" xml:space="preserve" width="600px" height="600px" version="1.0" style="shape-rendering:geometricPrecision; text-rendering:geometricPrecision; image-rendering:optimizeQuality; fill-rule:evenodd; clip-rule:evenodd"
viewBox="0 0 600 600"
 xmlns:xlink="http://www.w3.org/1999/xlink">
 <defs>
  <style type="text/css">
   <![CDATA[
    .fil2 {fill:#A9C9DD}
    .fil1 {fill:#C8DAEA}
    .fil0 {fill:url(#id0)}
    .fil3 {fill:url(#id1)}
   ]]>
  </style>
  <linearGradient id="id0" gradientUnits="userSpaceOnUse" x1="400" y1="150" x2="250" y2="500">
   <stop offset="0" style="stop-opacity:1; stop-color:#37AEE2"/>
   <stop offset="1" style="stop-opacity:1; stop-color:#1E96C8"/>
  </linearGradient>
  <linearGradient id="id1" gradientUnits="userSpaceOnUse" x1="339" y1="220" x2="411" y2="336">
   <stop offset="0" style="stop-opacity:1; stop-color:#EFF7FC"/>
   <stop offset="1" style="stop-opacity:1; stop-color:white"/>
  </linearGradient>
 </defs>
 <g id="Слой_x0020_1">
  <metadata id="CorelCorpID_0Corel-Layer"/>
  <path class="fil0" d="M208 0c168,0 16,0 184,0 168,0 208,40 208,208 0,168 0,16 0,184 0,168 -40,208 -208,208 -168,0 -16,0 -184,0 -168,0 -208,-40 -208,-208 0,-168 0,-90 0,-184 0,-168 40,-208 208,-208z"/>
  <g id="_235808112">
   <g>
    <path class="fil1" d="M231 457c-12,0 -10,-4 -14,-15l-34 -111 261 -155 -213 281 0 0zm0 0l0 0 0 0z"/>
   </g>
   <g>
    <path class="fil2" d="M231 457c9,0 13,-4 18,-9l47 -46 -59 -36 -6 91zm0 0l0 0 0 0z"/>
   </g>
   <path class="fil3" d="M237 367l143 106c16,9 28,4 32,-15l58 -275c6,-24 -9,-35 -25,-28l-342 132c-23,9 -23,22 -4,28l88 27 203 -128c10,-6 18,-3 11,4m-165 149l0 0 0 0z"/>
  </g>
 </g>
</svg>
