<?xml version="1.0" encoding="UTF-8"?>
<!DOCTYPE svg PUBLIC "-//W3C//DTD SVG 1.0//EN" "http://www.w3.org/TR/2001/REC-SVG-20010904/DTD/svg10.dtd">
<!-- Creator: CorelDRAW 2017 -->
<svg xmlns="http://www.w3.org/2000/svg" xml:space="preserve" width="600px" height="600px" version="1.0" style="shape-rendering:geometricPrecision; text-rendering:geometricPrecision; image-rendering:optimizeQuality; fill-rule:evenodd; clip-rule:evenodd"
viewBox="0 0 600 600"
 xmlns:xlink="http://www.w3.org/1999/xlink">
 <defs>
  <style type="text/css">
   <![CDATA[
    .fil0 {fill:#FEFEFE}
   ]]>
  </style>
 </defs>
 <g id="Слой_x0020_1">
  <metadata id="CorelCorpID_0Corel-Layer"/>
  <path class="fil0" d="M208 0c168,0 16,0 184,0 168,0 208,40 208,208 0,168 0,16 0,184 0,168 -40,208 -208,208 -168,0 -16,0 -184,0 -168,0 -208,-40 -208,-208 0,-168 0,-90 0,-184 0,-168 40,-208 208,-208zm283 207c3,-9 0,-16 -13,-16l-44 0c-11,0 -16,6 -19,12 0,0 -22,54 -54,89 -10,10 -15,13 -20,13 -3,0 -7,-3 -7,-13l0 -87c0,-11 -3,-16 -12,-16l-69 0c-7,0 -11,5 -11,10 0,11 16,13 17,43l0 64c0,14 -3,17 -8,17 -15,0 -51,-54 -72,-117 -4,-12 -8,-17 -20,-17l-44 0c-13,0 -15,6 -15,12 0,12 15,69 69,145 36,52 87,80 133,80 28,0 31,-6 31,-17l0 -39c0,-13 3,-15 11,-15 6,0 18,3 44,28 30,30 35,43 51,43l44 0c12,0 19,-6 15,-19 -4,-12 -18,-30 -37,-51 -10,-12 -25,-25 -30,-32 -6,-8 -5,-12 0,-19 0,0 53,-75 59,-101z"/>
 </g>
</svg>
